<svg style="position: absolute; width: 0; height: 0; overflow: hidden;" version="1.1" xmlns="http://www.w3.org/2000/svg" xmlns:xlink="http://www.w3.org/1999/xlink">
<defs>
<symbol id="icon-logo" viewBox="0 0 32 32">
<title>logo</title>
<path d="M5.465 22.695c-0.703-0.484-1.157-1.201-1.157-2.257 0-1.758 1.275-2.872 3.047-2.872 1.774 0 3.048 1.128 3.048 2.843 0 0.967-0.41 1.714-1.216 2.286 0.806 0.571 1.216 1.319 1.216 2.286 0 1.714-1.274 2.842-3.048 2.842-1.772 0-3.047-1.113-3.047-2.871 0-0.997 0.41-1.744 1.157-2.257zM9.084 20.438c0-0.938-0.689-1.553-1.714-1.553s-1.744 0.615-1.744 1.553c0 1.026 0.85 1.597 1.744 1.597s1.714-0.571 1.714-1.597zM5.626 24.952c0 0.937 0.718 1.553 1.744 1.553s1.714-0.615 1.714-1.553c0-1.026-0.82-1.597-1.714-1.597s-1.744 0.571-1.744 1.597z"></path>
<path d="M18.438 5.058l-3.443 3.443 0.909 0.938 2.432-2.433v8.308h1.319v-10.257z"></path>
<path d="M24.849 14.354c-0.982 0-1.73 0.82-1.978 1.875l-1.129-0.909c0.396-1.245 1.539-2.285 3.063-2.285 1.627 0 2.974 1.187 2.974 2.901 0 0.997-0.454 1.759-1.083 2.213 0.688 0.483 1.083 1.259 1.083 2.256 0 1.817-1.319 2.887-2.945 2.887-1.568 0-2.726-0.997-3.107-2.374l1.144-0.879c0.219 1.143 0.952 1.935 1.978 1.935 0.893 0 1.611-0.601 1.611-1.597 0-0.982-0.703-1.524-1.524-1.567h-0.615v-1.319h0.615c0.82-0.044 1.524-0.615 1.524-1.553 0-0.967-0.762-1.582-1.611-1.582z"></path>
</symbol>
</defs>
</svg>
